<?xml version="1.0" encoding="UTF-8"?>
<svg width="397px" height="348px" viewBox="0 0 397 348" version="1.1" xmlns="http://www.w3.org/2000/svg" xmlns:xlink="http://www.w3.org/1999/xlink">
    <!-- Generator: Sketch 49 (51002) - http://www.bohemiancoding.com/sketch -->
    <title>Mask</title>
    <desc>Created with Sketch.</desc>
    <defs>
        <path d="M101.056843,178.005945 C79.5181176,205.173218 61.7563777,236.341596 56.4760278,270.489639 C51.1950587,304.638295 59.9477588,342.097893 84.9470702,366.180597 C112.892431,393.101865 154.640507,398.985736 193.412813,402.941444 C232.016704,406.879974 270.988386,410.26024 309.56627,406.078772 C348.144155,401.897917 386.701607,389.643688 416.745362,365.30455 C439.349693,346.991609 456.658194,321.771517 463.193618,293.57544 C469.728422,265.379364 464.905645,234.318958 448.14945,210.627653 C418.041301,168.057167 361.823035,157.691838 318.626083,133.341657 C295.531982,120.323648 279.747277,95.5612095 255.866201,85.059688 C230.792589,74.033029 206.481803,87.5093068 185.554825,101.143249 C153.481405,122.039546 124.769503,148.096424 101.056843,178.005945" id="path-1"></path>
    </defs>
    <g id="Page-1" stroke="none" stroke-width="1" fill="none" fill-rule="evenodd">
        <g id="Desktop-1440" transform="translate(-254.000000, -3147.000000)">
            <g id="Group-15" transform="translate(179.000000, 3065.000000)">
                <g id="2" transform="translate(31.000000, 0.000000)">
                    <mask id="mask-2" fill="white">
                        <use xlink:href="#path-1"></use>
                    </mask>
                    <use id="Mask" fill="#0000FF" transform="translate(260.500000, 244.500000) rotate(30.000000) translate(-260.500000, -244.500000) " xlink:href="#path-1"></use>
                </g>
            </g>
        </g>
    </g>
</svg>
