<svg id="Layer_1" data-name="Layer 1" xmlns="http://www.w3.org/2000/svg" viewBox="0 0 602.4 609.71">
  <defs>
    <style>
      .cls-1 {
        fill: blue;
      }
    </style>
  </defs>
  <title>oval1</title>
  <path class="cls-1" d="M264,180.57c-24.14,25.12-39.24,57.36-53.64,89.08-34.08,75.1-67.38,155.69-56.35,237.42C163.87,580.39,210.09,646.2,271.16,688c74.78,51.16,172.24,67.74,259.73,44.21a307.22,307.22,0,0,0,109.18-54.28C722.91,613.12,766.94,502.09,751,398.13c-4.67-30.44-14.6-61.06-35-84.12-17.32-19.56-40.86-32.3-63.88-44.64L464.33,168.73c-30.66-16.43-69.26-40.66-105.62-34.89C325.1,139.18,287.55,156,264,180.57Z" transform="translate(-151.83 -132.97)"/>
</svg>
