<svg id="Layer_1" data-name="Layer 1" xmlns="http://www.w3.org/2000/svg" viewBox="0 0 633.91 584.95">
  <defs>
    <style>
      .cls-1 {
        fill: blue;
      }
    </style>
  </defs>
  <title>oval2</title>
  <path class="cls-1" d="M1801.07,297.13c-49.08,44.57-83.7,110.63-73.48,176.14,5.43,34.82,22.78,66.5,40.36,97,20.57,35.74,42.36,71.66,73.2,99,58.16,51.63,139.81,65.85,217.16,74,44.9,4.75,92,7.85,133.54-9.94,31.75-13.61,57.42-38.41,79.38-65.08,57.57-69.92,95-159.85,87.54-250.1-7.27-87.72-58.64-170.66-133.94-216.24-54.64-33.08-120.85-45.86-184-37.33-27.08,3.66-50.3,10.34-71.58,27.58-22.75,18.44-47.66,29.15-73.67,42.33C1861.81,251.71,1829.18,271.6,1801.07,297.13Z" transform="translate(-1725.8 -162.13)"/>
</svg>
